<svg width="62" height="62" viewBox="0 0 62 62" fill="none" xmlns="http://www.w3.org/2000/svg">
<g filter="url(#filter0_d_9_131)">
<rect x="4" width="54" height="54" rx="10" fill="black"/>
</g>
<path d="M31.41 9C21.2385 9 13 17.4524 13 27.8774C13 36.2197 18.2745 43.294 25.5878 45.7874C26.5083 45.9651 26.8459 45.3815 26.8459 44.8797C26.8459 44.4314 26.8305 43.2437 26.8228 41.6705C21.7018 42.8095 20.6217 39.1378 20.6217 39.1378C19.7841 36.959 18.5736 36.377 18.5736 36.377C16.906 35.2066 18.7025 35.2302 18.7025 35.2302C20.5512 35.3623 21.5223 37.1746 21.5223 37.1746C23.1639 40.0612 25.8318 39.2275 26.8842 38.7445C27.0499 37.5238 27.524 36.6916 28.0502 36.2197C23.9616 35.7477 19.6644 34.1243 19.6644 26.8911C19.6644 24.8303 20.3778 23.1471 21.5591 21.8256C21.352 21.349 20.7307 19.4298 21.7202 16.8294C21.7202 16.8294 23.262 16.3229 26.783 18.7643C28.2558 18.3443 29.8206 18.1367 31.3855 18.1272C32.9503 18.1367 34.5152 18.3443 35.988 18.7643C39.4859 16.3229 41.0277 16.8294 41.0277 16.8294C42.0172 19.4298 41.3959 21.349 41.2118 21.8256C42.3854 23.1471 43.0988 24.8303 43.0988 26.8911C43.0988 34.1432 38.7955 35.7399 34.6993 36.2039C35.3436 36.7703 35.9419 37.9281 35.9419 39.6963C35.9419 42.2227 35.9189 44.252 35.9189 44.8655C35.9189 45.3611 36.2411 45.951 37.1846 45.7622C44.5501 43.2861 49.82 36.2071 49.82 27.8774C49.82 17.4524 41.5769 9 31.41 9Z" fill="white"/>
<defs>
<filter id="filter0_d_9_131" x="0" y="0" width="62" height="62" filterUnits="userSpaceOnUse" color-interpolation-filters="sRGB">
<feFlood flood-opacity="0" result="BackgroundImageFix"/>
<feColorMatrix in="SourceAlpha" type="matrix" values="0 0 0 0 0 0 0 0 0 0 0 0 0 0 0 0 0 0 127 0" result="hardAlpha"/>
<feOffset dy="4"/>
<feGaussianBlur stdDeviation="2"/>
<feComposite in2="hardAlpha" operator="out"/>
<feColorMatrix type="matrix" values="0 0 0 0 0 0 0 0 0 0 0 0 0 0 0 0 0 0 0.25 0"/>
<feBlend mode="normal" in2="BackgroundImageFix" result="effect1_dropShadow_9_131"/>
<feBlend mode="normal" in="SourceGraphic" in2="effect1_dropShadow_9_131" result="shape"/>
</filter>
</defs>
</svg>
