<svg width="62" height="62" viewBox="0 0 62 62" fill="none" xmlns="http://www.w3.org/2000/svg">
<g filter="url(#filter0_d_9_119)">
<rect x="4" width="54" height="54" rx="10" fill="#FF6347"/>
<path d="M31 8.59088C25.9989 8.59088 25.3745 8.61389 23.4109 8.70134C21.4503 8.79338 20.1157 9.10173 18.9421 9.55736C17.7317 10.0268 16.7038 10.6573 15.6806 11.6805C14.6574 12.7038 14.0253 13.7301 13.5574 14.942C13.1018 16.1156 12.7919 17.4503 12.7014 19.4108C12.6094 21.3745 12.5909 21.9988 12.5909 27C12.5909 32.0011 12.614 32.6255 12.7014 34.5891C12.7934 36.5482 13.1018 37.8843 13.5574 39.0579C14.0269 40.2668 14.6574 41.2962 15.6806 42.3194C16.7038 43.3411 17.7301 43.9747 18.9421 44.4426C20.1172 44.8967 21.4519 45.2081 23.4109 45.2986C25.3745 45.3907 25.9989 45.4091 31 45.4091C36.0012 45.4091 36.6255 45.3861 38.5892 45.2986C40.5482 45.2066 41.8844 44.8967 43.058 44.4426C44.2669 43.9732 45.2962 43.3411 46.3195 42.3194C47.3412 41.2962 47.9747 40.2714 48.4426 39.0579C48.8967 37.8843 49.2082 36.5482 49.2987 34.5891C49.3907 32.6255 49.4091 32.0011 49.4091 27C49.4091 21.9988 49.3861 21.3745 49.2987 19.4108C49.2066 17.4518 48.8967 16.1141 48.4426 14.942C47.9732 13.7316 47.3412 12.7038 46.3195 11.6805C45.2962 10.6573 44.2715 10.0253 43.058 9.55736C41.8844 9.10173 40.5482 8.79185 38.5892 8.70134C36.6255 8.60929 36.0012 8.59088 31 8.59088ZM31 11.9045C35.9137 11.9045 36.4997 11.9291 38.4404 12.0134C40.2353 12.0978 41.2094 12.3954 41.8568 12.6501C42.7189 12.983 43.3295 13.3818 43.9769 14.0246C44.6197 14.6689 45.0186 15.2811 45.3514 16.1432C45.603 16.7906 45.9037 17.7647 45.985 19.5596C46.0725 21.5018 46.0924 22.0847 46.0924 27C46.0924 31.9152 46.0694 32.4997 45.9789 34.4403C45.8853 36.2352 45.5862 37.2093 45.333 37.8567C44.9894 38.7189 44.5982 39.3295 43.9539 39.9768C43.3111 40.6196 42.6898 41.0185 41.8368 41.3514C41.1925 41.603 40.203 41.9037 38.4082 41.985C36.4537 42.0724 35.8784 42.0924 30.954 42.0924C26.028 42.0924 25.4528 42.0693 23.4999 41.9788C21.7034 41.8853 20.714 41.5861 20.0696 41.333C19.1967 40.9893 18.5969 40.5982 17.9541 39.9538C17.3083 39.3111 16.8956 38.6897 16.5734 37.8368C16.3203 37.1925 16.0227 36.203 15.9291 34.4081C15.8601 32.4751 15.8355 31.8784 15.8355 26.977C15.8355 22.074 15.8601 21.4757 15.9291 19.5197C16.0227 17.7249 16.3203 16.7369 16.5734 16.0926C16.8956 15.2182 17.3083 14.6199 17.9541 13.974C18.5969 13.3312 19.1967 12.917 20.0696 12.5964C20.714 12.3417 21.682 12.0426 23.4769 11.9505C25.4328 11.8815 26.0081 11.8585 30.931 11.8585L31 11.9045ZM31 17.5469C25.7765 17.5469 21.547 21.781 21.547 27C21.547 32.2236 25.7811 36.453 31 36.453C36.2236 36.453 40.4531 32.2189 40.4531 27C40.4531 21.7764 36.219 17.5469 31 17.5469ZM31 33.1363C27.6097 33.1363 24.8637 30.3903 24.8637 27C24.8637 23.6096 27.6097 20.8636 31 20.8636C34.3904 20.8636 37.1364 23.6096 37.1364 27C37.1364 30.3903 34.3904 33.1363 31 33.1363ZM43.0365 17.1741C43.0365 18.3937 42.0455 19.3832 40.8274 19.3832C39.6078 19.3832 38.6183 18.3922 38.6183 17.1741C38.6183 15.9561 39.6093 14.9666 40.8274 14.9666C42.044 14.965 43.0365 15.9561 43.0365 17.1741Z" fill="white"/>
</g>
<defs>
<filter id="filter0_d_9_119" x="0" y="0" width="62" height="62" filterUnits="userSpaceOnUse" color-interpolation-filters="sRGB">
<feFlood flood-opacity="0" result="BackgroundImageFix"/>
<feColorMatrix in="SourceAlpha" type="matrix" values="0 0 0 0 0 0 0 0 0 0 0 0 0 0 0 0 0 0 127 0" result="hardAlpha"/>
<feOffset dy="4"/>
<feGaussianBlur stdDeviation="2"/>
<feComposite in2="hardAlpha" operator="out"/>
<feColorMatrix type="matrix" values="0 0 0 0 0 0 0 0 0 0 0 0 0 0 0 0 0 0 0.25 0"/>
<feBlend mode="normal" in2="BackgroundImageFix" result="effect1_dropShadow_9_119"/>
<feBlend mode="normal" in="SourceGraphic" in2="effect1_dropShadow_9_119" result="shape"/>
</filter>
</defs>
</svg>
