<svg width="35" height="41" viewBox="0 0 35 41" fill="none" xmlns="http://www.w3.org/2000/svg">
<path d="M34.548 30.227C34.548 33.587 33.498 36.128 31.398 37.85C29.34 39.572 25.686 40.433 20.436 40.433H0.78L0.78 0.553999H3.237H19.806C23.292 0.553999 26.001 0.931999 27.933 1.688C29.907 2.402 31.293 3.473 32.091 4.901C32.889 6.329 33.288 8.114 33.288 10.256C33.288 13.196 32.574 15.485 31.146 17.123C29.76 18.719 27.135 19.685 23.271 20.021V20.21C26.127 20.42 28.374 20.903 30.012 21.659C31.65 22.373 32.805 23.423 33.477 24.809C34.191 26.195 34.548 28.001 34.548 30.227ZM17.034 8.492H10.86V16.304H17.034C19.092 16.304 20.583 16.052 21.507 15.548C22.431 15.002 22.893 13.952 22.893 12.398C22.893 10.886 22.431 9.857 21.507 9.311C20.583 8.765 19.092 8.492 17.034 8.492ZM18.294 24.557H10.86V32.558H18.294C20.352 32.558 21.843 32.285 22.767 31.739C23.691 31.151 24.153 30.08 24.153 28.526C24.153 26.93 23.691 25.88 22.767 25.376C21.843 24.83 20.352 24.557 18.294 24.557Z" fill="#FAFF03"/>
</svg>
